<svg width="58" height="58" viewBox="0 0 58 58" fill="none" xmlns="http://www.w3.org/2000/svg">
<g filter="url(#filter0_d)">
<circle cx="29" cy="29" r="24" fill="white"/>
</g>
<path d="M30.4062 14C24.2019 14 19.1562 19.0456 19.1562 25.25V26.9037L16.4431 32.33C16.2969 32.6206 16.3137 32.9656 16.4844 33.2413C16.655 33.5169 16.9569 33.6875 17.2812 33.6875H19.1562V38.2025C19.1562 38.7537 19.3962 39.2731 19.8181 39.6294C20.24 39.9856 20.7875 40.1412 21.335 40.0494L24.7812 39.4794V43.0625C24.7812 43.3381 24.9012 43.6006 25.1131 43.7769C25.2837 43.9212 25.4975 44 25.7187 44C25.7694 44 25.8219 43.9963 25.8725 43.9869L37.1225 42.1119C37.5744 42.0369 37.9062 41.6469 37.9062 41.1875V35.4106C37.9062 34.1056 38.5475 33.0594 39.0856 32.4088C40.7431 30.4062 41.6562 27.8638 41.6562 25.25C41.6562 19.0456 36.6106 14 30.4062 14Z" fill="#231651"/>
<defs>
<filter id="filter0_d" x="0" y="0" width="58" height="58" filterUnits="userSpaceOnUse" color-interpolation-filters="sRGB">
<feFlood flood-opacity="0" result="BackgroundImageFix"/>
<feColorMatrix in="SourceAlpha" type="matrix" values="0 0 0 0 0 0 0 0 0 0 0 0 0 0 0 0 0 0 127 0" result="hardAlpha"/>
<feOffset/>
<feGaussianBlur stdDeviation="2.5"/>
<feColorMatrix type="matrix" values="0 0 0 0 0 0 0 0 0 0 0 0 0 0 0 0 0 0 0.25 0"/>
<feBlend mode="normal" in2="BackgroundImageFix" result="effect1_dropShadow"/>
<feBlend mode="normal" in="SourceGraphic" in2="effect1_dropShadow" result="shape"/>
</filter>
</defs>
</svg>
